<?xml version="1.0" encoding="UTF-8"?>
<svg width="256" height="256" viewBox="0 0 24 24" fill="none" xmlns="http://www.w3.org/2000/svg">
  <defs>
    <linearGradient id="gradient" x1="0%" y1="0%" x2="100%" y2="100%">
      <stop offset="0%" style="stop-color:#3B82F6"/>
      <stop offset="100%" style="stop-color:#8B5CF6"/>
    </linearGradient>
  </defs>
  <path d="M12 4.5a2.5 2.5 0 0 0-4.96-.46 2.5 2.5 0 0 0-1.98 3 2.5 2.5 0 0 0-1.32 4.24 3 3 0 0 0 .34 5.58 2.5 2.5 0 0 0 2.96 3.08 2.5 2.5 0 0 0 4.91.05L12 20V4.5Z" stroke="url(#gradient)" stroke-width="1.5" stroke-linecap="round" stroke-linejoin="round"/>
  <path d="M16 8V5c0-1.1.9-2 2-2" stroke="url(#gradient)" stroke-width="1.5" stroke-linecap="round" stroke-linejoin="round"/>
  <path d="M16 19v3c0 1.1.9 2 2 2" stroke="url(#gradient)" stroke-width="1.5" stroke-linecap="round" stroke-linejoin="round"/>
  <path d="M22 12h-6" stroke="url(#gradient)" stroke-width="1.5" stroke-linecap="round" stroke-linejoin="round"/>
</svg>