<?xml version="1.0" encoding="UTF-8"?>
<svg width="24" height="24" viewBox="0 0 24 24" fill="none" xmlns="http://www.w3.org/2000/svg">
  <path d="M12 4.5C11.0572 4.5 10.2466 4.87067 9.64124 5.47612C9.03591 6.08156 8.66667 6.89856 8.66667 7.83333C8.66667 8.76811 9.03591 9.58511 9.64124 10.1906C10.2466 10.796 11.0572 11.1667 12 11.1667M12 4.5C12.9428 4.5 13.7534 4.87067 14.3588 5.47612C14.9641 6.08156 15.3333 6.89856 15.3333 7.83333C15.3333 8.76811 14.9641 9.58511 14.3588 10.1906C13.7534 10.796 12.9428 11.1667 12 11.1667M12 4.5V2M12 11.1667V13.5M21.5 12C21.5 17.2467 17.2467 21.5 12 21.5C6.75329 21.5 2.5 17.2467 2.5 12C2.5 6.75329 6.75329 2.5 12 2.5C17.2467 2.5 21.5 6.75329 21.5 12Z" stroke="#60A5FA" stroke-width="2" stroke-linecap="round" stroke-linejoin="round"/>
  <path d="M12 13.5C10.6193 13.5 9.5 14.6193 9.5 16C9.5 17.3807 10.6193 18.5 12 18.5C13.3807 18.5 14.5 17.3807 14.5 16C14.5 14.6193 13.3807 13.5 12 13.5Z" stroke="#60A5FA" stroke-width="2" stroke-linecap="round" stroke-linejoin="round"/>
</svg>